# xmcd
#
# Track frame offsets: 
#        150
#        15413
#        32220
#        48425
#        82001
#        126638
#        143160
#        170179
#        199324
#        224835
#        253985
#        268832
#        290281
#
# Disc length: 4237 seconds
#
# Revision: 0
# Processed by: cddbd v1.5.2PL0 Copyright (c) Steve Scherf et al.
# Submitted via: ExactAudioCopy v0.99pb3
#
DISCID=d9108b0d
DTITLE=Mostar Sevdah Reunion and Saban Bajramovic - Saban
DYEAR=1900
DGENRE=Crossover
TTITLE0=Shtar luludja
TTITLE1=Shukar feriza
TTITLE2=Bele ruze
TTITLE3=Roma bijav
TTITLE4=Saban vs msr
TTITLE5=Trajo mungri
TTITLE6=Geljan dade
TTITLE7=Shal mange
TTITLE8=Lazi lazi vere
TTITLE9=Rupuni
TTITLE10=O dads bakhtalo
TTITLE11=Duj penja
TTITLE12=Kaj okaova roma [bonus track remix]
EXTD=
EXTT0=
EXTT1=
EXTT2=
EXTT3=
EXTT4=
EXTT5=
EXTT6=
EXTT7=
EXTT8=
EXTT9=
EXTT10=
EXTT11=
EXTT12=
PLAYORDER=
